<?xml version="1.0" encoding="utf-8"?>
<!-- Generator: Adobe Illustrator 28.0.0, SVG Export Plug-In . SVG Version: 6.00 Build 0)  -->
<svg version="1.1" id="图层_1" xmlns="http://www.w3.org/2000/svg" xmlns:xlink="http://www.w3.org/1999/xlink" x="0px" y="0px"
	 viewBox="0 0 1143.04 248.83" style="enable-background:new 0 0 1143.04 248.83;" xml:space="preserve">
<style type="text/css">
	.st0{fill:#00388D;}
	.st1{fill:#FFFFFF;}
	.st2{fill:#00A198;}
	.st3{fill:#231815;}
</style>
<g>
	<polygon class="st3" points="56.93,150.63 133.3,150.63 133.3,112.14 56.93,112.14 56.93,68.81 139.37,68.81 139.37,28.8 
		10.87,28.8 10.87,239.12 143.61,239.12 143.61,199.12 56.93,199.12 	"/>
	<path class="st3" d="M259.07,205.79c-7.48,0-13.89-0.76-19.24-2.27c-5.36-1.51-9.75-4.09-13.18-7.73
		c-3.44-3.64-5.96-8.59-7.58-14.85c-1.62-6.26-2.42-14.14-2.42-23.64c0-9.49,0.8-17.37,2.42-23.64c1.61-6.26,4.09-11.26,7.42-15
		c3.34-3.73,7.62-6.36,12.88-7.88c5.25-1.52,11.52-2.27,18.79-2.27c13.53,0,25.66,2.02,36.37,6.06V77.59
		c-5.05-1.61-11.32-2.88-18.79-3.79c-7.48-0.91-15.26-1.37-23.34-1.37c-12.73,0-24.09,1.32-34.09,3.94
		c-10,2.63-18.49,7.17-25.46,13.64c-6.97,6.47-12.27,15.15-15.91,26.06c-3.63,10.91-5.45,24.65-5.45,41.22
		c0,16.57,1.82,30.3,5.45,41.22c3.64,10.91,8.94,19.6,15.91,26.06c6.97,6.47,15.46,11.01,25.46,13.64c10,2.62,21.36,3.94,34.09,3.94
		c3.84,0,7.83-0.15,11.97-0.45c4.14-0.3,8.18-0.76,12.12-1.36c3.94-0.61,7.58-1.26,10.91-1.97c3.33-0.71,6.21-1.56,8.64-2.58v-36.06
		c-5.86,2.22-11.87,3.79-18.03,4.7C271.85,205.33,265.53,205.79,259.07,205.79z"/>
	<path class="st3" d="M461.97,90.02c-6.77-6.46-15.11-11.01-25-13.64c-9.9-2.62-21.21-3.94-33.94-3.94
		c-12.73,0-24.09,1.32-34.09,3.94c-10,2.63-18.39,7.17-25.15,13.64c-6.77,6.47-11.97,15.15-15.61,26.06
		c-3.63,10.91-5.45,24.65-5.45,41.22c0,16.57,1.82,30.3,5.45,41.22c3.64,10.91,8.84,19.6,15.61,26.06
		c6.77,6.47,15.15,11.01,25.15,13.64c10,2.62,21.37,3.94,34.09,3.94c12.73,0,24.04-1.31,33.94-3.94c9.9-2.62,18.23-7.17,25-13.64
		c6.77-6.46,11.97-15.15,15.61-26.06c3.63-10.91,5.45-24.64,5.45-41.22c0-16.56-1.82-30.3-5.45-41.22
		C473.94,105.17,468.73,96.49,461.97,90.02z M436.51,182.15c-1.11,6.67-3.03,11.97-5.76,15.91c-2.73,3.94-6.36,6.72-10.91,8.34
		c-4.55,1.62-10.15,2.42-16.82,2.42c-6.67,0-12.22-0.8-16.67-2.42c-4.45-1.62-8.03-4.39-10.76-8.34c-2.73-3.94-4.7-9.24-5.91-15.91
		c-1.21-6.67-1.82-14.95-1.82-24.85c0-9.9,0.55-18.18,1.67-24.85c1.11-6.67,3.03-12.02,5.76-16.06c2.73-4.04,6.36-6.92,10.91-8.64
		c4.55-1.71,10.15-2.58,16.82-2.58c6.67,0,12.22,0.86,16.67,2.58c4.44,1.72,8.03,4.6,10.76,8.64c2.73,4.04,4.7,9.39,5.91,16.06
		c1.21,6.67,1.82,14.95,1.82,24.85C438.18,167.2,437.62,175.48,436.51,182.15z"/>
	<polygon class="st3" points="693.96,184.27 692.14,184.27 661.83,49.11 608.5,49.11 576.37,184.27 574.55,184.27 544.25,28.8 
		496.06,28.8 541.82,239.12 599.4,239.12 632.44,105.78 634.26,105.78 666.68,239.12 724.26,239.12 772.45,28.8 724.87,28.8 	"/>
	<path class="st3" d="M841.24,10.32c-1.82-1.62-4.29-2.62-7.43-3.03c-3.13-0.4-7.22-0.61-12.27-0.61c-4.85,0-8.89,0.2-12.12,0.61
		c-3.24,0.41-5.76,1.42-7.58,3.03c-1.82,1.62-3.08,3.94-3.79,6.97c-0.71,3.03-1.06,7.07-1.06,12.12c0,5.26,0.35,9.39,1.06,12.43
		c0.7,3.03,1.97,5.35,3.79,6.97c1.82,1.62,4.34,2.68,7.58,3.18c3.23,0.51,7.27,0.76,12.12,0.76c5.05,0,9.14-0.25,12.27-0.76
		c3.13-0.5,5.61-1.56,7.43-3.18c1.82-1.62,3.08-3.94,3.79-6.97c0.7-3.03,1.06-7.17,1.06-12.43c0-5.05-0.36-9.09-1.06-12.12
		C844.32,14.25,843.06,11.94,841.24,10.32z"/>
	<rect x="799.42" y="75.47" class="st3" width="43.95" height="163.65"/>
	<polygon class="st3" points="1060.05,28.8 1006.1,28.8 945.49,109.72 934.27,109.72 934.27,28.8 888.21,28.8 888.21,239.12 
		934.27,239.12 934.27,147 945.49,147 1007.31,239.12 1063.07,239.12 983.37,126.39 	"/>
	<rect x="1085.5" y="75.47" class="st3" width="43.95" height="163.65"/>
	<path class="st3" d="M1127.32,10.32c-1.82-1.62-4.29-2.62-7.43-3.03c-3.13-0.4-7.22-0.61-12.27-0.61c-4.85,0-8.89,0.2-12.12,0.61
		c-3.24,0.41-5.76,1.42-7.58,3.03c-1.82,1.62-3.08,3.94-3.79,6.97c-0.71,3.03-1.06,7.07-1.06,12.12c0,5.26,0.35,9.39,1.06,12.43
		c0.7,3.03,1.97,5.35,3.79,6.97c1.82,1.62,4.34,2.68,7.58,3.18c3.23,0.51,7.27,0.76,12.12,0.76c5.05,0,9.14-0.25,12.27-0.76
		c3.13-0.5,5.61-1.56,7.43-3.18c1.82-1.62,3.08-3.94,3.79-6.97c0.7-3.03,1.06-7.17,1.06-12.43c0-5.05-0.36-9.09-1.06-12.12
		C1130.4,14.25,1129.14,11.94,1127.32,10.32z"/>
</g>
</svg>
