<?xml version="1.0" encoding="utf-8"?>
<!-- Generator: Adobe Illustrator 28.0.0, SVG Export Plug-In . SVG Version: 6.00 Build 0)  -->
<svg version="1.1" id="图层_1" xmlns="http://www.w3.org/2000/svg" xmlns:xlink="http://www.w3.org/1999/xlink" x="0px" y="0px"
	 viewBox="0 0 1600 1600" style="enable-background:new 0 0 1600 1600;" xml:space="preserve">
<style type="text/css">
	.st0{fill:#00388D;}
	.st1{fill:#FFFFFF;}
	.st2{fill:#00A198;}
	.st3{fill:#231815;}
</style>
<g>
	<g>
		<g>
			<g>
				<g>
					<path class="st2" d="M1310.65,453.3c109.91,0,199.33-89.42,199.33-199.33s-89.42-199.33-199.33-199.33
						s-199.33,89.42-199.33,199.33S1200.74,453.3,1310.65,453.3z M1310.65,174.91c43.59,0,79.05,35.46,79.05,79.05
						s-35.46,79.05-79.05,79.05c-43.59,0-79.05-35.46-79.05-79.05S1267.06,174.91,1310.65,174.91z"/>
				</g>
			</g>
			<path class="st0" d="M1455.38,512.74c-39.74,31.79-43.11,83.42-43.11,83.42s-39.73-47.65-94.45-45.51
				c-63.43,2.48-103.43,54.98-103.43,54.98s76.22-21.73,127.24,28.41c52.62,51.72,47.11,119.58,47.11,119.58
				c0,132.06-98.12,257.87-309.77,257.87c-0.5-0.06-0.94-0.06-1.43-0.06h-11.83c-6.11-0.17-12.22-0.49-18.38-0.99
				c-145.21-11.66-262.24-128.59-274.07-273.8c-3.96-48.42,3.69-94.75,20.47-136.46c4.84-9.3,9.3-18.82,13.32-28.61
				c1.49-3.58,2.92-7.15,4.24-10.78c19.04-33.67,45.01-64.16,77.47-89.25c33.12-25.59,75.73-73.75,50.97-125.11
				c-18.02-31.35-68.97-35.11-108.41-25.66c-17.09,4.09-35.32-0.52-47.25-13.42c-1.72-1.87-3.49-3.7-5.29-5.51
				c-35.6-35.54-82.86-55.08-133.27-55.08h-0.22l-157.7,0.44c-257.68,0-467.05,210.87-464.59,469.16
				c2.43,255.82,214.68,460.12,470.51,460.12h584.04c7.37,0,14.58,1.82,21.4,0c394.8-8.84,438.67-233.36,411.15-397.59
				c-15.95-95.17-19.5-146.81-8.88-196.42c15-70.07,75.83-92.82,75.83-92.82S1514.82,465.18,1455.38,512.74z M487.58,1011.43
				c-165.18,0-299.55-134.37-299.55-299.55s134.37-299.6,299.82-299.6l157.75-0.44h0.06c7.92,0,13.32,3.69,16.45,6.77
				c3.08,3.14,6.82,8.53,6.82,16.51c0,20.41-3.19,40.11-9.08,58.6c0,0.05-0.06,0.11-0.11,0.16c-0.99,3.25-2.09,6.44-3.3,9.63
				c-4.29,8.47-8.31,17.11-12.05,25.86c-1.21,2.2-2.41,4.39-3.74,6.44C520.59,720.6,304.87,669.14,321.29,711.64
				c18.34,47.48,73.52,82.45,119.13,82.45h34.55c47.93,0,93.7-9.46,135.52-26.58c10.78,90.68,47.76,175.41,103.06,243.92H487.58z"/>
		</g>
	</g>
	<g>
		<polygon class="st3" points="285.41,1453.85 361.78,1453.85 361.78,1415.36 285.41,1415.36 285.41,1372.02 367.85,1372.02 
			367.85,1332.02 239.35,1332.02 239.35,1542.34 372.09,1542.34 372.09,1502.33 285.41,1502.33 		"/>
		<path class="st3" d="M487.55,1509c-7.48,0-13.89-0.76-19.24-2.27c-5.36-1.51-9.75-4.09-13.18-7.73
			c-3.44-3.64-5.96-8.59-7.58-14.85c-1.62-6.26-2.42-14.14-2.42-23.64c0-9.49,0.8-17.37,2.42-23.64c1.61-6.26,4.09-11.26,7.42-15
			c3.34-3.73,7.62-6.36,12.88-7.88c5.25-1.52,11.52-2.27,18.79-2.27c13.53,0,25.66,2.02,36.37,6.06v-36.97
			c-5.05-1.61-11.32-2.88-18.79-3.79c-7.48-0.91-15.26-1.37-23.34-1.37c-12.73,0-24.09,1.32-34.09,3.94
			c-10,2.63-18.49,7.17-25.46,13.64c-6.97,6.47-12.27,15.15-15.91,26.06c-3.63,10.91-5.45,24.65-5.45,41.22
			c0,16.57,1.82,30.3,5.45,41.22c3.64,10.91,8.94,19.6,15.91,26.06c6.97,6.47,15.46,11.01,25.46,13.64
			c10,2.62,21.36,3.94,34.09,3.94c3.84,0,7.83-0.15,11.97-0.45c4.14-0.3,8.18-0.76,12.12-1.36c3.94-0.61,7.58-1.26,10.91-1.97
			c3.33-0.71,6.21-1.56,8.64-2.58v-36.06c-5.86,2.22-11.87,3.79-18.03,4.7C500.33,1508.55,494.01,1509,487.55,1509z"/>
		<path class="st3" d="M690.45,1393.24c-6.77-6.46-15.11-11.01-25-13.64c-9.9-2.62-21.21-3.94-33.94-3.94
			c-12.73,0-24.09,1.32-34.09,3.94c-10,2.63-18.39,7.17-25.15,13.64c-6.77,6.47-11.97,15.15-15.61,26.06
			c-3.63,10.91-5.45,24.65-5.45,41.22c0,16.57,1.82,30.3,5.45,41.22c3.64,10.91,8.84,19.6,15.61,26.06
			c6.77,6.47,15.15,11.01,25.15,13.64c10,2.62,21.37,3.94,34.09,3.94c12.73,0,24.04-1.31,33.94-3.94c9.9-2.62,18.23-7.17,25-13.64
			c6.77-6.46,11.97-15.15,15.61-26.06c3.63-10.91,5.45-24.64,5.45-41.22c0-16.56-1.82-30.3-5.45-41.22
			C702.42,1408.39,697.21,1399.71,690.45,1393.24z M664.99,1485.37c-1.11,6.67-3.03,11.97-5.76,15.91
			c-2.73,3.94-6.36,6.72-10.91,8.34c-4.55,1.62-10.15,2.42-16.82,2.42s-12.22-0.8-16.67-2.42c-4.45-1.62-8.03-4.39-10.76-8.34
			c-2.73-3.94-4.7-9.24-5.91-15.91c-1.21-6.67-1.82-14.95-1.82-24.85c0-9.9,0.55-18.18,1.67-24.85c1.11-6.67,3.03-12.02,5.76-16.06
			c2.73-4.04,6.36-6.92,10.91-8.64c4.55-1.71,10.15-2.58,16.82-2.58s12.22,0.86,16.67,2.58c4.44,1.72,8.03,4.6,10.76,8.64
			c2.73,4.04,4.7,9.39,5.91,16.06c1.21,6.67,1.82,14.95,1.82,24.85C666.66,1470.42,666.1,1478.7,664.99,1485.37z"/>
		<polygon class="st3" points="922.44,1487.49 920.62,1487.49 890.31,1352.32 836.98,1352.32 804.85,1487.49 803.03,1487.49 
			772.73,1332.02 724.54,1332.02 770.3,1542.34 827.89,1542.34 860.92,1409 862.74,1409 895.16,1542.34 952.74,1542.34 
			1000.93,1332.02 953.35,1332.02 		"/>
		<path class="st3" d="M1069.72,1313.53c-1.82-1.62-4.29-2.62-7.43-3.03c-3.13-0.4-7.22-0.61-12.27-0.61
			c-4.85,0-8.89,0.2-12.12,0.61c-3.24,0.41-5.76,1.42-7.58,3.03c-1.82,1.62-3.08,3.94-3.79,6.97c-0.71,3.03-1.06,7.07-1.06,12.12
			c0,5.26,0.35,9.39,1.06,12.43c0.7,3.03,1.97,5.35,3.79,6.97c1.82,1.62,4.34,2.68,7.58,3.18c3.23,0.51,7.27,0.76,12.12,0.76
			c5.05,0,9.14-0.25,12.27-0.76c3.13-0.5,5.61-1.56,7.43-3.18c1.82-1.62,3.08-3.94,3.79-6.97c0.7-3.03,1.06-7.17,1.06-12.43
			c0-5.05-0.36-9.09-1.06-12.12C1072.8,1317.47,1071.54,1315.15,1069.72,1313.53z"/>
		<rect x="1027.9" y="1378.69" class="st3" width="43.95" height="163.65"/>
		<polygon class="st3" points="1288.53,1332.02 1234.58,1332.02 1173.97,1412.93 1162.75,1412.93 1162.75,1332.02 1116.69,1332.02 
			1116.69,1542.34 1162.75,1542.34 1162.75,1450.21 1173.97,1450.21 1235.79,1542.34 1291.56,1542.34 1211.85,1429.6 		"/>
		<rect x="1313.98" y="1378.69" class="st3" width="43.95" height="163.65"/>
		<path class="st3" d="M1355.8,1313.53c-1.82-1.62-4.29-2.62-7.43-3.03c-3.13-0.4-7.22-0.61-12.27-0.61c-4.85,0-8.89,0.2-12.12,0.61
			c-3.24,0.41-5.76,1.42-7.58,3.03c-1.82,1.62-3.08,3.94-3.79,6.97c-0.71,3.03-1.06,7.07-1.06,12.12c0,5.26,0.35,9.39,1.06,12.43
			c0.7,3.03,1.97,5.35,3.79,6.97c1.82,1.62,4.34,2.68,7.58,3.18c3.23,0.51,7.27,0.76,12.12,0.76c5.05,0,9.14-0.25,12.27-0.76
			c3.13-0.5,5.61-1.56,7.43-3.18c1.82-1.62,3.08-3.94,3.79-6.97c0.7-3.03,1.06-7.17,1.06-12.43c0-5.05-0.36-9.09-1.06-12.12
			C1358.88,1317.47,1357.62,1315.15,1355.8,1313.53z"/>
	</g>
</g>
</svg>
