<?xml version="1.0" encoding="utf-8"?>
<!-- Generator: Adobe Illustrator 28.0.0, SVG Export Plug-In . SVG Version: 6.00 Build 0)  -->
<svg version="1.1" id="图层_1" xmlns="http://www.w3.org/2000/svg" xmlns:xlink="http://www.w3.org/1999/xlink" x="0px" y="0px"
	 viewBox="0 0 1600 1174.17" style="enable-background:new 0 0 1600 1174.17;" xml:space="preserve">
<style type="text/css">
	.st0{fill:#00388D;}
	.st1{fill:#FFFFFF;}
	.st2{fill:#00A198;}
	.st3{fill:#231815;}
</style>
<g>
	<g>
		<g>
			<g>
				<g>
					<path class="st2" d="M1310.65,424.41c109.91,0,199.33-89.42,199.33-199.33s-89.42-199.33-199.33-199.33
						s-199.33,89.42-199.33,199.33S1200.74,424.41,1310.65,424.41z M1310.65,146.03c43.59,0,79.05,35.46,79.05,79.05
						s-35.46,79.05-79.05,79.05c-43.59,0-79.05-35.46-79.05-79.05S1267.06,146.03,1310.65,146.03z"/>
				</g>
			</g>
			<path class="st0" d="M1455.38,483.85c-39.74,31.79-43.11,83.42-43.11,83.42s-39.73-47.65-94.45-45.51
				c-63.43,2.48-103.43,54.98-103.43,54.98s76.22-21.73,127.24,28.41c52.62,51.72,47.11,119.58,47.11,119.58
				c0,132.06-98.12,257.87-309.77,257.87c-0.5-0.06-0.94-0.06-1.43-0.06h-11.83c-6.11-0.17-12.22-0.49-18.38-0.99
				c-145.21-11.66-262.24-128.59-274.07-273.8c-3.96-48.42,3.69-94.75,20.47-136.46c4.84-9.3,9.3-18.82,13.32-28.61
				c1.49-3.58,2.92-7.15,4.24-10.78c19.04-33.67,45.01-64.16,77.47-89.25c33.12-25.59,75.73-73.75,50.97-125.11
				c-18.02-31.35-68.97-35.11-108.41-25.66c-17.09,4.09-35.32-0.52-47.25-13.42c-1.72-1.87-3.49-3.7-5.29-5.51
				c-35.6-35.54-82.86-55.08-133.27-55.08h-0.22l-157.7,0.44c-257.68,0-467.05,210.87-464.59,469.16
				c2.43,255.82,214.68,460.12,470.51,460.12h584.04c7.37,0,14.58,1.82,21.4,0c394.8-8.84,438.67-233.36,411.15-397.59
				c-15.95-95.17-19.5-146.81-8.88-196.42c15-70.07,75.83-92.82,75.83-92.82S1514.82,436.29,1455.38,483.85z M487.58,982.55
				c-165.18,0-299.55-134.37-299.55-299.55S322.4,383.4,487.85,383.4l157.75-0.44h0.06c7.92,0,13.32,3.69,16.45,6.77
				c3.08,3.14,6.82,8.53,6.82,16.51c0,20.41-3.19,40.11-9.08,58.6c0,0.05-0.06,0.11-0.11,0.16c-0.99,3.25-2.09,6.44-3.3,9.63
				c-4.29,8.47-8.31,17.11-12.05,25.86c-1.21,2.2-2.41,4.39-3.74,6.44C520.59,691.71,304.87,640.26,321.29,682.75
				c18.34,47.48,73.52,82.45,119.13,82.45h34.55c47.93,0,93.7-9.46,135.52-26.58c10.78,90.68,47.76,175.41,103.06,243.92H487.58z"/>
		</g>
	</g>
</g>
</svg>
