<svg xmlns="http://www.w3.org/2000/svg" viewBox="0 0 473 412" width="473" height="412">
	<style>
		tspan { white-space:pre }
		.shp0 { fill: #fca509 } 
		.shp1 { fill: #1e3254 } 
		.shp2 { fill: #2c76a7 } 
	</style>
	<g id="Layer 0">
		<path id="Path 10" class="shp0" d="M266,1.19c-1.38,0.58 -4.52,1.99 -7,3.13c-2.47,1.14 -7,4.57 -10.05,7.63c-3.08,3.08 -6.68,8.01 -8.1,11.05c-1.4,3.02 -3.06,7.07 -3.69,9c-0.63,1.92 -1.14,6.87 -1.14,11c0,4.12 0.5,9.07 1.12,11c0.61,1.93 2.41,6.09 3.99,9.25c1.58,3.16 4.9,7.77 7.37,10.25c2.47,2.47 6.86,5.72 9.75,7.2c2.89,1.49 7.05,3.11 9.25,3.6c2.2,0.49 6.25,1.11 9,1.38c2.75,0.27 7.03,-0.04 9.5,-0.69c2.47,-0.65 5.85,-1.67 7.5,-2.27c1.65,-0.6 5.02,-2.45 7.5,-4.12c2.47,-1.67 5.96,-4.52 7.75,-6.32c1.79,-1.8 3.25,-3.51 3.25,-3.78c0,-0.27 0.84,-1.74 1.86,-3.25c1.03,-1.51 2.82,-5.45 3.99,-8.75c1.51,-4.28 2.13,-8.44 2.15,-14.5c0.02,-4.67 -0.47,-10.07 -1.07,-12c-0.61,-1.93 -2.07,-5.52 -3.26,-8c-1.19,-2.47 -4.41,-6.79 -7.17,-9.59c-2.75,-2.8 -6.8,-6.02 -9,-7.16c-2.2,-1.14 -6.03,-2.78 -8.5,-3.65c-2.88,-1.01 -7.74,-1.56 -13.5,-1.53c-4.95,0.03 -10.12,0.53 -11.5,1.11z" />
		<path id="Path 13" class="shp1" d="M89.69,22.75c-0.88,0.96 -2.46,4.23 -3.52,7.25c-1.06,3.02 -2.76,9.33 -3.78,14c-1.41,6.43 -1.86,12.64 -1.86,25.5c0,12.8 0.46,19.1 1.85,25.5c1.02,4.67 3.19,12.32 4.83,17c1.64,4.67 5.07,12.55 7.62,17.5c2.55,4.95 7.15,12.38 10.23,16.5c3.07,4.12 9.39,11.1 14.04,15.5c4.65,4.4 12.04,10.38 16.42,13.29c4.38,2.91 13.82,8.14 20.97,11.61c7.98,3.88 14.93,8.05 18,10.8c2.85,2.56 6.45,7.23 8.38,10.89c2.24,4.24 3.59,8.43 4.01,12.4c0.34,3.3 0.31,9.6 -0.06,14c-0.38,4.4 -1.88,11.6 -3.34,16c-1.46,4.4 -5.51,14.07 -9.01,21.5c-3.5,7.42 -6.5,14.38 -6.67,15.46c-0.28,1.76 0.93,2.19 11.69,4.18c6.6,1.22 14.93,2.76 18.5,3.42c3.57,0.66 13.47,2.74 22,4.62c8.52,1.88 17.3,3.82 19.5,4.32c2.2,0.49 10.52,2.69 18.5,4.88c7.97,2.19 14.84,3.79 15.25,3.55c0.41,-0.24 0.75,-7.18 0.75,-15.43c0,-8.25 0.48,-19.39 1.08,-24.75c0.59,-5.36 2.19,-13.13 3.56,-17.25c1.36,-4.13 4.18,-9.98 6.26,-13c2.08,-3.02 5.99,-7.19 8.69,-9.27c2.7,-2.07 7.62,-4.61 10.92,-5.64c4.28,-1.34 10.74,-2.07 22.5,-2.54c9.07,-0.37 20.77,-1.34 26,-2.15c5.23,-0.82 13.44,-2.81 18.25,-4.44c4.81,-1.62 11.34,-4.25 14.5,-5.84c3.16,-1.59 10.03,-5.71 15.25,-9.17c5.61,-3.71 13.39,-10.21 19.01,-15.87c5.23,-5.27 12.06,-13.41 15.18,-18.08c3.12,-4.68 7.34,-11.87 9.38,-16c2.04,-4.13 4.81,-10.42 6.15,-14c1.34,-3.58 3.3,-10.1 4.35,-14.5c1.05,-4.4 1.92,-10.7 1.94,-14c0.01,-3.54 -0.5,-6.52 -1.24,-7.27c-0.7,-0.7 -2.62,-1.25 -4.27,-1.24c-1.65,0.01 -5.47,1.2 -8.5,2.63c-3.03,1.43 -8.65,3.69 -12.5,5.02c-3.85,1.33 -11.05,3.09 -16,3.9c-5.13,0.84 -15.67,1.48 -24.5,1.49c-8.52,0.01 -18.87,-0.42 -23,-0.96c-4.13,-0.53 -12,-1.73 -17.5,-2.66c-5.51,-0.93 -15.39,-1.7 -22,-1.7c-9.24,-0.01 -13.95,0.5 -20.5,2.22c-4.67,1.23 -12.1,4.11 -16.5,6.4c-4.4,2.29 -11.35,6.86 -15.45,10.17c-4.26,3.44 -9.82,9.26 -13,13.61c-3.05,4.18 -6.09,8.46 -6.75,9.5c-1.03,1.63 -1.33,1.69 -2.17,0.39c-0.53,-0.82 -1.27,-4.43 -1.63,-8c-0.36,-3.58 -1.73,-9.87 -3.06,-14c-1.32,-4.13 -4.51,-11.1 -7.08,-15.5c-2.9,-4.96 -7.75,-11.07 -12.77,-16.08c-4.45,-4.45 -10.8,-9.65 -14.1,-11.56c-3.3,-1.91 -9.38,-4.86 -13.5,-6.56c-4.13,-1.7 -13.8,-4.97 -21.5,-7.28c-7.7,-2.31 -18.72,-6.12 -24.5,-8.47c-5.77,-2.35 -13.2,-5.78 -16.5,-7.6c-3.3,-1.83 -9.15,-5.34 -13,-7.8c-3.92,-2.51 -12.17,-9.68 -18.75,-16.31c-6.58,-6.62 -12.57,-11.83 -13.6,-11.83c-1.02,0 -2.57,0.79 -3.45,1.75z" />
		<path id="Path 15" class="shp2" d="M12.5,171.62c-6.67,0.8 -11.28,1.83 -11.71,2.6c-0.39,0.7 -0.52,2.18 -0.29,3.28c0.23,1.1 1.13,7.62 2.01,14.5c0.87,6.87 2.71,17.22 4.08,23c1.37,5.78 3.67,14.32 5.1,19c1.43,4.68 4.6,13.45 7.05,19.5c2.45,6.05 6.98,15.95 10.07,22c3.09,6.05 9.05,16.18 13.24,22.5c4.19,6.32 10.45,15.1 13.92,19.5c3.46,4.4 12.65,14.32 20.41,22.04c7.76,7.72 17.72,16.76 22.12,20.08c4.4,3.32 12.05,8.76 17,12.08c4.95,3.32 13.28,8.32 18.5,11.12c5.23,2.79 14.45,7.14 20.5,9.67c6.05,2.52 16.18,6.12 22.5,7.99c6.33,1.87 15.77,4.32 21,5.44c5.23,1.12 13.77,2.75 19,3.63c5.23,0.87 17.37,1.85 27,2.17c10.94,0.36 21.81,0.13 29,-0.63c6.33,-0.67 15.32,-1.9 20,-2.74c4.67,-0.84 12.1,-2.38 16.5,-3.42c4.4,-1.04 13.18,-3.65 19.5,-5.81c6.32,-2.16 14.42,-5.14 18,-6.63c3.57,-1.49 11.67,-5.29 18,-8.46c6.33,-3.17 13.75,-7.17 16.5,-8.9c2.75,-1.73 6.29,-3.92 7.88,-4.88c1.58,-0.96 8.33,-5.93 15,-11.04c6.67,-5.11 16.58,-13.44 22.03,-18.5c5.45,-5.06 13.68,-13.71 18.29,-19.21c4.61,-5.5 12.59,-16.3 17.74,-24c5.15,-7.7 9.63,-15.01 9.96,-16.25c0.39,-1.48 0,-2.75 -1.15,-3.72c-0.96,-0.81 -2.43,-1.49 -3.25,-1.52c-0.82,-0.03 -2.62,-1.2 -4,-2.62c-1.38,-1.41 -4.75,-3.6 -7.5,-4.87c-2.75,-1.27 -6.57,-3.37 -8.5,-4.68c-1.92,-1.31 -7.77,-3.81 -13,-5.56c-5.23,-1.75 -13.33,-3.63 -18,-4.18c-5.58,-0.65 -11.76,-0.66 -18,-0.02c-5.22,0.54 -10.62,1.24 -12,1.55c-1.38,0.32 -9.47,2.8 -18,5.52c-8.52,2.72 -19.32,5.62 -24,6.45c-4.67,0.83 -9.85,1.93 -11.5,2.44c-1.65,0.51 -4.13,0.93 -5.5,0.92c-2.38,-0.02 -2.33,0.1 1,2.32c1.92,1.28 6.87,4.32 11,6.74c4.12,2.42 9.25,6 11.38,7.94c2.14,1.95 5.17,5.79 6.74,8.54c2.1,3.68 2.86,6.32 2.85,10c0,3.32 -0.76,6.33 -2.24,8.95c-1.23,2.17 -4.03,5.22 -6.23,6.77c-2.2,1.55 -6.47,3.5 -9.5,4.32c-3.15,0.86 -9.77,1.51 -15.5,1.52c-5.5,0.01 -12.47,-0.61 -15.5,-1.38c-3.02,-0.77 -6.4,-1.91 -7.5,-2.55c-1.1,-0.63 -7.85,-3.18 -15,-5.67c-7.15,-2.48 -13.68,-4.79 -14.5,-5.12c-0.82,-0.33 -2.4,-0.74 -3.5,-0.9c-1.1,-0.16 -7.85,-1.93 -15,-3.92c-7.15,-1.99 -14.8,-4.02 -17,-4.51c-2.2,-0.49 -6.03,-1.39 -8.5,-2.02c-2.47,-0.62 -11.92,-2.63 -21,-4.47c-9.08,-1.84 -23.03,-4.51 -31,-5.93c-7.98,-1.42 -19.9,-3.23 -26.5,-4.02c-6.6,-0.79 -14.25,-1.68 -17,-1.98c-2.75,-0.3 -8.6,-1.47 -13,-2.61c-4.4,-1.14 -10.89,-3.51 -14.42,-5.27c-3.53,-1.77 -8.43,-5.01 -10.89,-7.21c-2.46,-2.2 -5.3,-5.69 -6.33,-7.75c-1.09,-2.18 -1.88,-5.94 -1.89,-9c-0.02,-4.06 0.58,-6.16 2.64,-9.25c1.47,-2.2 3.4,-4.58 4.28,-5.3c0.88,-0.71 3.63,-2.22 6.11,-3.35c2.47,-1.13 7.87,-2.75 12,-3.6c4.13,-0.85 11.77,-1.72 17,-1.93l9.5,-0.39c-7.75,-4.9 -11.37,-7.02 -13.04,-7.88c-1.67,-0.86 -4.82,-3.19 -7,-5.17c-2.18,-1.99 -8.62,-7.84 -14.32,-13c-5.7,-5.16 -13.57,-12.01 -17.5,-15.2c-3.93,-3.2 -10.74,-7.57 -15.14,-9.72c-4.4,-2.15 -11.6,-4.88 -16,-6.06c-5.88,-1.58 -11.44,-2.21 -21,-2.38c-7.15,-0.13 -17.95,0.36 -24,1.09z" />
	</g>
</svg>